# xmcd
# 
# Track frame offsets:
#     150
#     16338
#     33060
#     46530
#     61429
#     76575
#     90743
#     109271
#     126634
#     143560
#     166472
#     190035
#     220740
#     235293
# 
# Disc length: 3304
# 
# Revision: 10
# Processed by: cddbd v1.5.2PL0 Copyright (c) Steve Scherf et al.
# Submitted via: fre:ac v1.0.31
# 
DISCID=af0ce60e
DTITLE=Eric Clapton - Eric Clapton Deluxe Edition  Disc  2
DYEAR=2006
DGENRE=Rock
TTITLE0=Slunky (Delaney Bramlett mix)
TTITLE1=Bad Boy (Delaney Bramlett mix)
TTITLE2=Easy Now (Delaney Bramlett mix)
TTITLE3=After Midnight (Delaney Bramlett mix)
TTITLE4=Blues Power (Delaney Bramlett mix)
TTITLE5=Bottle Of Red Wine (Delaney Bramlett mix)
TTITLE6=Lovin' You Lovin' Me (Delaney Bramlett mix)
TTITLE7=Lonesome And A Long Way From Home (Delaney Bramlett mix)
TTITLE8=Don't Know Why (Delaney Bramlett mix)
TTITLE9=Let It Rain (Delaney Bramlett mix)
TTITLE10=Don't Know Why (Olympic Studios version)
TTITLE11=I've Told You For The Last Time (Olympic Studios version)
TTITLE12=Delaney and Bonnie and Friends featuring Eric Clapton - Comin' Home (stereo)
TTITLE13=Delaney and Bonnie and Friends featuring Eric Clapton - Groupie (Superstar) (stereo)
EXTD=
EXTT0=
EXTT1=
EXTT2=
EXTT3=
EXTT4=
EXTT5=
EXTT6=
EXTT7=
EXTT8=
EXTT9=
EXTT10=
EXTT11=
EXTT12=
EXTT13=
PLAYORDER=
